# xmcd CD database file
#
# Track frame offsets:
#	150
#	27994
#	57168
#	87672
#	112339
#	138147
#	163158
#	191471
#	220763
#	243150
#
# Disc length: 3911 seconds
#
# Revision: 0
# Processed by: cddbd v1.5.2PL0 Copyright (c) Steve Scherf et al.
# Submitted via: CDex 1.70beta2
#
DISCID=8b0f450a
DTITLE=Dean Magraw - Unseen Rain
DYEAR=2007
DGENRE=Jazz
TTITLE0=Unseen Rain
TTITLE1=Keep the Faith
TTITLE2=Isabella
TTITLE3=Bird in the House
TTITLE4=Plum Blossom (Magraw/Anton)
TTITLE5=These Voices
TTITLE6=Eva Arriving
TTITLE7=Mr. Syms (Coltrane)
TTITLE8=Mali
TTITLE9=Out of this World (Arlen/Mercer)
EXTD=YEAR: 2007
EXTT0=
EXTT1=
EXTT2=
EXTT3=
EXTT4=
EXTT5=
EXTT6=
EXTT7=
EXTT8=
EXTT9=
PLAYORDER=
